<svg width="22" height="18" viewBox="0 0 22 18" fill="none" xmlns="http://www.w3.org/2000/svg">
<path d="M20.05 17.9961H1.95C1.07 17.9961 0 16.9261 0 16.0661V3.92609C0 3.05609 1.08 1.99609 1.95 1.99609H2C2 1.11609 3.15 -0.00390625 4.05 -0.00390625H7.95C9.09 -0.00390625 9.74 1.19609 9.92 1.56609L10.02 1.77609V1.99609H13.71V3.99609H2.13C2.13 3.99609 2.04 4.07609 2 4.12609V15.8761C2 15.8761 2.09 15.9661 2.13 16.0061H19.87C19.87 16.0061 19.96 15.9261 20 15.8761V11.6661H22V16.0761C22 16.9461 20.92 18.0061 20.05 18.0061V17.9961Z" fill="#004D99"/>
<path d="M18.3 2.83594H16.3V11.2959H18.3V2.83594Z" fill="#004D99"/>
<path d="M21.54 6.06641H13.08V8.06641H21.54V6.06641Z" fill="#004D99"/>
</svg>
