<svg width="24" height="24" viewBox="0 0 24 24" fill="none" xmlns="http://www.w3.org/2000/svg">
<path d="M5.07214 2.80762H13.9608L11.7108 5.05762H5.05945V18.9395H18.9403V12.2744L21.1903 10.0244V18.9268C21.1902 19.553 20.9702 20.0863 20.5292 20.5273C20.0881 20.9684 19.5548 21.1894 18.9286 21.1895H5.07214C4.44578 21.1895 3.91173 20.9685 3.47058 20.5273C3.0296 20.0863 2.80952 19.5529 2.80945 18.9268V5.07031C2.80945 4.44395 3.02944 3.9099 3.47058 3.46875C3.91172 3.02762 4.44579 2.80762 5.07214 2.80762ZM19.6063 0.961914C19.9031 0.961954 20.1889 1.01756 20.4628 1.12891C20.6681 1.21238 20.8601 1.32828 21.0389 1.47656L21.2137 1.63574L22.3622 2.80371C22.5763 3.03045 22.7391 3.28121 22.8505 3.55566C22.9618 3.83004 23.0174 4.10897 23.0175 4.39258C23.0175 4.67634 22.9657 4.95678 22.8612 5.23242C22.7567 5.50736 22.59 5.75836 22.3622 5.98633L13.287 15.0811H8.91687V10.7109L17.9989 1.63574C18.2255 1.40918 18.4787 1.24021 18.7587 1.12891C19.0393 1.01745 19.3222 0.961914 19.6063 0.961914ZM11.0477 12.9512H12.3759V12.9561L18.1395 7.19238L18.1307 7.18359L17.4755 6.52539H17.4745L16.7958 5.86719L16.787 5.8584L16.7782 5.86719L11.0507 11.5879L11.0594 11.5977L11.0477 11.585V12.9512Z" fill="#004D99" stroke="#004D99" stroke-width="0.025"/>
</svg>
