<svg width="24" height="24" viewBox="0 0 24 24" fill="none" xmlns="http://www.w3.org/2000/svg">
<path fill-rule="evenodd" clip-rule="evenodd" d="M18.9736 8.181V16.066C18.9736 19.918 15.8386 23.053 11.9866 23.053C8.1336 23.053 4.9996 19.918 4.9996 16.066V13.229V8.181V5.999C4.9996 3.243 7.2426 1 9.9986 1C12.7556 1 14.9976 3.243 14.9976 5.999V13.229V14.618C14.9976 16.271 13.6536 17.616 12.0006 17.616C10.3486 17.616 9.0036 16.271 9.0036 14.618V5.388H11.0036V14.618C11.0036 15.168 11.4516 15.616 12.0006 15.616C12.5506 15.616 12.9976 15.168 12.9976 14.618V13.229V5.999C12.9976 4.346 11.6526 3 9.9986 3C8.3456 3 6.9996 4.346 6.9996 5.999V8.181V13.229V16.066C6.9996 18.816 9.2376 21.053 11.9866 21.053C14.7366 21.053 16.9736 18.816 16.9736 16.066V8.181H18.9736Z" fill="#004D99"/>
</svg>
