<svg width="24" height="24" viewBox="0 0 24 24" fill="none" xmlns="http://www.w3.org/2000/svg">
<path d="M8.17853 10.4863L7.4754 10.373C7.38729 10.6374 7.29904 10.8925 7.20978 11.1504C6.7293 12.474 5.80768 13.4026 4.51056 13.8711L4.50665 13.8721C4.23511 13.9726 3.97477 14.0692 3.70685 14.1553L2.26447 14.6191L3.70001 15.1045L4.31915 15.3154H4.32013C5.71004 15.7844 6.6517 16.6695 7.16779 17.9893L7.26544 18.2598C7.33591 18.481 7.40626 18.692 7.4754 18.8994L7.95001 20.3223L8.42462 18.8994C8.51339 18.6331 8.60149 18.3786 8.69904 18.1152L8.70099 18.1104C9.17917 16.7751 10.1442 15.8266 11.5008 15.3652L11.8397 15.25V15.2266L12.2244 15.0938L13.6229 14.6084L12.2156 14.1465L11.5467 13.9268H11.5477C10.1076 13.4466 9.14321 12.4838 8.65314 11.041V11.0391L8.44318 10.4287L8.43243 10.3975L8.41681 10.3682M8.17853 10.4863L8.41681 10.3682M8.17853 10.4863L8.45001 10.5312C8.44999 10.4594 8.43251 10.4068 8.42462 10.3857C8.42198 10.3787 8.41877 10.3726 8.41681 10.3682M8.17853 10.4863L8.41681 10.3682M7.67169 7.91504C7.92171 7.82967 8.20704 7.86754 8.45587 8.03418C8.63546 8.16198 8.79245 8.36317 8.87872 8.60742L8.8797 8.61035C9.05729 9.10366 9.22504 9.6083 9.39532 10.1191L9.39728 10.124L9.60724 10.7344C9.9885 11.8842 10.7271 12.6069 11.869 12.9951H11.8709L13.9803 13.7051L13.9842 13.7061C14.3852 13.8376 14.6227 14.1141 14.6844 14.4502L14.7 14.5977V14.6113C14.7 15.066 14.4567 15.4136 13.9774 15.5781L13.7723 15.6475H13.7693C13.4445 15.7574 13.1196 15.8676 12.7947 15.9775L11.8221 16.3066C10.7458 16.6654 10.021 17.3789 9.63947 18.4424L9.63751 18.4492C9.52768 18.7687 9.41628 19.0905 9.30548 19.4229C9.16865 19.8333 9.02182 20.245 8.87286 20.6621C8.77025 20.9286 8.53342 21.183 8.26642 21.3096H8.26544L8.25665 21.3145C8.15145 21.3671 8.03835 21.3916 7.91974 21.3916C7.8184 21.3916 7.71469 21.3693 7.59454 21.3203C7.34833 21.211 7.13177 20.9784 7.02325 20.6602V20.6592L6.31525 18.5654L6.31427 18.5635L6.23712 18.3486C5.85642 17.3709 5.19792 16.714 4.21271 16.334L3.99689 16.2568L3.33185 16.0283C2.87697 15.8667 2.41328 15.7152 1.95685 15.5664C1.44651 15.3958 1.20001 15.0401 1.20001 14.6113C1.20002 14.5028 1.21934 14.3253 1.31525 14.1533C1.40379 13.9946 1.57709 13.8024 1.9549 13.6758L1.95587 13.6768C2.68813 13.436 3.43201 13.1836 4.16681 12.9219C5.19397 12.5597 5.89302 11.8451 6.26154 10.8086L6.26056 10.8076C6.41111 10.386 6.56301 9.95141 6.7049 9.51562C6.75897 9.35831 6.81391 9.20126 6.86798 9.04395C6.92298 8.88396 6.97802 8.72346 7.03302 8.56348L7.03204 8.5625C7.14359 8.24439 7.38302 8.01345 7.67169 7.91504ZM18.6063 8.23145C18.6836 8.46091 18.76 8.68769 18.8338 8.91406V8.91504C19.0932 9.71786 19.6433 10.2679 20.4461 10.5273L20.451 10.5283C20.8021 10.638 21.1375 10.7545 21.4891 10.875C21.3708 10.915 21.2531 10.9534 21.1375 10.9932C20.9042 11.0734 20.6768 11.1516 20.4481 11.2246L20.4461 11.2256C19.6446 11.4846 19.0948 12.0331 18.8348 12.8252V12.8262C18.7607 13.0534 18.6839 13.2813 18.6063 13.5117C18.5673 13.6273 18.5281 13.7437 18.4891 13.8604C18.4471 13.7355 18.4059 13.6105 18.3641 13.4863C18.2841 13.2489 18.2045 13.0124 18.1248 12.7734L18.1229 12.7686L18.0135 12.4971C17.7319 11.8896 17.2572 11.4573 16.5926 11.2285H16.5916C16.2412 11.1092 15.8726 10.9822 15.5027 10.8604C15.8624 10.7397 16.242 10.609 16.5555 10.5068L16.5584 10.5059C17.3324 10.2478 17.8721 9.72427 18.1336 8.94238C18.2533 8.59087 18.3712 8.23718 18.4891 7.88086C18.5282 7.99803 18.5671 8.11536 18.6063 8.23145ZM12.5955 4.59961C12.7553 5.07889 13.0928 5.41641 13.5721 5.57617L13.576 5.57715C13.6869 5.61302 13.7958 5.64906 13.9031 5.68457C13.8023 5.71784 13.7004 5.7525 13.5965 5.78613C13.1119 5.94293 12.7565 6.27693 12.5945 6.77734C12.557 6.89332 12.5184 7.00697 12.4813 7.11914L12.3875 6.82227C12.2309 6.31258 11.8818 5.94382 11.3563 5.7832H11.3553C11.2502 5.75136 11.1459 5.71657 11.0418 5.68262C11.1573 5.6443 11.2749 5.60604 11.3943 5.56738L11.3983 5.56543C11.8774 5.40565 12.2151 5.069 12.3748 4.58984C12.4131 4.47494 12.4481 4.3643 12.4832 4.25684C12.5188 4.36687 12.5558 4.48051 12.5955 4.59961Z" fill="#004D99" stroke="#004D99"/>
</svg>
