<svg width="24" height="24" viewBox="0 0 24 24" fill="none" xmlns="http://www.w3.org/2000/svg">
<path fill-rule="evenodd" clip-rule="evenodd" d="M12 12C9.23858 12 7 9.76142 7 7C7 4.23858 9.23858 2 12 2C14.7614 2 17 4.23858 17 7C17 9.76142 14.7614 12 12 12ZM12 10C13.6569 10 15 8.65685 15 7C15 5.34315 13.6569 4 12 4C10.3431 4 9 5.34315 9 7C9 8.65685 10.3431 10 12 10Z" fill="#1A1A19"/>
<path d="M4 17.3333V22H2V17.3333C2 15.5117 3.59027 14 5.45455 14H18.5455C20.4097 14 22 15.5117 22 17.3333V22H20V17.3333C20 16.6396 19.3272 16 18.5455 16H5.45455C4.67282 16 4 16.6396 4 17.3333Z" fill="#1A1A19"/>
<path fill-rule="evenodd" clip-rule="evenodd" d="M12 12C9.23858 12 7 9.76142 7 7C7 4.23858 9.23858 2 12 2C14.7614 2 17 4.23858 17 7C17 9.76142 14.7614 12 12 12ZM12 10C13.6569 10 15 8.65685 15 7C15 5.34315 13.6569 4 12 4C10.3431 4 9 5.34315 9 7C9 8.65685 10.3431 10 12 10Z" stroke="#1A1A19"/>
<path d="M4 17.3333V22H2V17.3333C2 15.5117 3.59027 14 5.45455 14H18.5455C20.4097 14 22 15.5117 22 17.3333V22H20V17.3333C20 16.6396 19.3272 16 18.5455 16H5.45455C4.67282 16 4 16.6396 4 17.3333Z" stroke="#1A1A19"/>
</svg>
