<svg width="21" height="21" viewBox="0 0 21 21" fill="none" xmlns="http://www.w3.org/2000/svg">
<g clip-path="url(#clip0_3266_6797)">
<path d="M17 11.2695V19.2695H1V5.26953H8.55" stroke="#004D99" stroke-width="2"/>
<path d="M1 15.4695L5.71 12.2695L10.41 16.2695L13.23 13.8695L17 16.2695" stroke="#004D99" stroke-width="2"/>
<path d="M20.83 2.48C20.83 2.65 20.63 2.68 20.54 2.72C20.21 2.85 19.87 2.96 19.53 3.07C19.19 3.18 18.96 3.4 18.85 3.74C18.74 4.08 18.63 4.42 18.5 4.75C18.46 4.84 18.34 4.96 18.26 4.96C18.18 4.96 18.06 4.84 18.02 4.74C17.89 4.43 17.79 4.1 17.69 3.78C17.58 3.42 17.35 3.18 16.99 3.07C16.66 2.97 16.33 2.86 16 2.73C15.91 2.69 15.78 2.57 15.79 2.49C15.79 2.41 15.92 2.29 16.01 2.25C16.34 2.12 16.68 2.01 17.02 1.9C17.35 1.79 17.57 1.57 17.68 1.24C17.79 0.91 17.89 0.58 18.02 0.25C18.06 0.15 18.11 0 18.27 0C18.44 0 18.47 0.16 18.51 0.26C18.64 0.58 18.74 0.92 18.85 1.25C18.96 1.58 19.18 1.8 19.51 1.91C19.85 2.02 20.19 2.13 20.52 2.26C20.62 2.3 20.83 2.33 20.83 2.5V2.48Z" fill="#004D99"/>
<path d="M17.22 7.3986C17.2 7.5886 17.09 7.6886 16.92 7.7486C16.45 7.8986 15.99 8.0686 15.52 8.2186C14.87 8.4286 14.44 8.8586 14.23 9.4986C14.08 9.9586 13.92 10.4186 13.77 10.8786C13.71 11.0586 13.62 11.2086 13.4 11.1986C13.19 11.1986 13.11 11.0586 13.05 10.8786C12.89 10.3986 12.73 9.9286 12.57 9.4486C12.36 8.8386 11.96 8.4286 11.35 8.2186C10.88 8.0586 10.4 7.8886 9.91999 7.7386C9.72999 7.6786 9.58999 7.5886 9.59999 7.3686C9.59999 7.1586 9.73999 7.0786 9.91999 7.0186C10.39 6.8686 10.86 6.6986 11.32 6.5486C11.95 6.3386 12.37 5.9286 12.58 5.2986C12.74 4.8286 12.9 4.3686 13.05 3.8986C13.11 3.7186 13.2 3.5686 13.42 3.5786C13.63 3.5786 13.71 3.7186 13.77 3.8986C13.92 4.3586 14.08 4.8186 14.23 5.2786C14.44 5.9286 14.87 6.3586 15.52 6.5686C16 6.7186 16.47 6.8886 16.95 7.0486C17.12 7.1086 17.22 7.2186 17.23 7.3886L17.22 7.3986Z" fill="#004D99"/>
</g>
<defs>
<clipPath id="clip0_3266_6797">
<rect width="20.83" height="20.27" fill="white"/>
</clipPath>
</defs>
</svg>
