<svg width="116" height="14" viewBox="0 0 116 14" fill="none" xmlns="http://www.w3.org/2000/svg">
<path fill-rule="evenodd" clip-rule="evenodd" d="M94.402 13.7719C94.6506 13.7719 95.0409 13.7188 95.236 13.6476V12.4442C94.9877 12.4971 94.7748 12.515 94.5794 12.515C93.9406 12.515 93.6388 12.1788 93.6388 11.1873V0.371564H90.9055V1.57556H92.1481V11.2581C92.1481 12.9045 92.8049 13.7719 94.402 13.7719ZM98.0935 11.276V5.68223H99.9569V4.47862H98.0935V2.14198H96.6027V4.47862H95.183V5.68223H96.6027V11.3466C96.6027 12.9753 97.3305 13.7719 99.0521 13.7719C99.3184 13.7719 99.744 13.7188 99.9569 13.6476V12.4442C99.6732 12.4971 99.4247 12.515 99.1942 12.515C98.4485 12.515 98.0935 12.2496 98.0935 11.276ZM74.0626 5.45201C76.0149 5.45201 77.0265 6.83276 77.1862 8.37295H70.7792C70.9568 6.6912 72.0926 5.45201 74.0626 5.45201ZM81.2861 9.06304C81.2861 6.97451 82.6173 5.4697 84.4986 5.4697C86.3977 5.4697 87.693 7.0099 87.693 9.06304C87.693 11.1166 86.3977 12.6568 84.4986 12.6568C82.6173 12.6568 81.2861 11.152 81.2861 9.06304ZM104.767 12.4442H103.525V8.33737C103.525 6.42559 104.501 5.4697 106.222 5.4697C107.766 5.4697 108.76 6.42559 108.76 8.33737V12.4442H107.518V13.6476H111.494V12.4442H110.251V8.33737C110.251 6.05401 108.885 4.21301 106.4 4.21301C105.104 4.21301 104.146 4.70865 103.525 5.50529V0.371564H100.791V1.57556H102.034V12.4442H100.791V13.6476H104.767V12.4442ZM59.0833 5.91226V1.61095H60.4143V0.371564H56.2081V1.61095H57.5391V12.4088H56.2081V13.6476H60.4143V12.4088H59.0833V7.11606H65.7565V12.4088H64.4255V13.6476H68.6317V12.4088H67.3007V1.61095H68.6317V0.371564H64.4255V1.61095H65.7565V5.91226H59.0833ZM78.4641 11.1873H76.9733C76.4409 12.1076 75.4825 12.6745 74.1158 12.6745C72.0394 12.6745 70.9213 11.4174 70.7792 9.55887H78.677V8.90398C78.677 6.10709 76.8848 4.21301 74.0626 4.21301C71.2227 4.21301 69.2528 6.21306 69.2528 9.06304C69.2528 11.9307 71.2227 13.9136 74.0626 13.9136C76.1393 13.9136 77.7366 12.8689 78.4641 11.1873ZM87.64 13.6476H90.3732V12.4442H89.1308V5.68223H90.3732V4.47862H87.64V5.84148C86.8592 4.8327 85.6877 4.21301 84.3033 4.21301C81.6942 4.21301 79.7598 6.30192 79.7598 9.06304C79.7598 11.8243 81.6942 13.9136 84.3033 13.9136C85.6877 13.9136 86.8592 13.294 87.64 12.2848V13.6476Z" fill="black"/>
<path fill-rule="evenodd" clip-rule="evenodd" d="M4.75572 0.0178889C4.25175 0.0178889 3.74799 0.209611 3.36295 0.594806L0.575463 3.37478C-0.192275 4.14089 -0.192275 5.38708 0.578192 6.15475L8.44507 14.0017L16.3125 6.15475C17.0822 5.38767 17.0805 4.14264 16.3108 3.37478L13.525 0.596361C13.1402 0.210778 12.6366 0.0184722 12.1333 0.0184722C11.6277 0.0184722 11.1222 0.212139 10.7358 0.599083L8.44507 2.88381L6.15141 0.595972C5.76656 0.210778 5.26124 0.0178889 4.75572 0.0178889ZM30.6863 0.371583H35.0346L37.2711 8.93919L39.6669 0.371583H43.8556L39.3829 13.63H35.141L30.6863 0.371583ZM31.5915 8.47894C31.3608 11.9661 29.0537 14.0017 25.2376 14.0017C20.9958 14.0017 18.4048 11.3114 18.4048 7.00972C18.4048 2.67303 21.0137 0 25.1491 0C29.0003 0 31.2721 1.94717 31.5207 5.38125H27.456C27.332 4.03608 26.5688 3.32772 25.2022 3.32772C23.5339 3.32772 22.6997 4.54942 22.6997 7.00972C22.6997 9.41714 23.6049 10.6738 25.3263 10.6738C26.6222 10.6738 27.4385 9.89489 27.5627 8.47894H31.5915ZM47.263 9.48811C47.4761 10.4792 48.0442 10.8335 49.2153 10.8335C50.2447 10.8335 50.8128 10.4615 50.8128 9.87739C50.8128 9.04517 50.0497 8.97458 48.4698 8.56742C46.624 8.08967 45.4351 7.68211 44.8847 7.29283C43.8556 6.56736 43.3584 5.54069 43.3584 4.23053C43.3584 1.66406 45.3817 0 48.9137 0C52.3391 0 54.3624 1.50461 54.593 4.17764H50.5642C50.4221 3.381 49.8719 3.00942 48.8428 3.00942C47.9376 3.00942 47.4938 3.31022 47.4938 3.91203C47.4938 4.62019 48.1859 4.74425 49.4639 5.08044C51.1144 5.50531 52.428 5.77072 53.262 6.33714C54.4333 7.11589 54.9657 8.07178 54.9657 9.43503C54.9657 12.32 52.8891 14.0017 49.0381 14.0017C45.4706 14.0017 43.3762 12.32 43.1101 9.48811H47.263Z" fill="#CC0000"/>
<path fill-rule="evenodd" clip-rule="evenodd" d="M113.743 12.267C113.929 12.267 114.093 12.2489 114.093 12.0303C114.093 11.8483 113.915 11.8263 113.765 11.8263H113.466V12.267H113.743ZM113.466 13.1227H113.218V11.6154H113.791C114.156 11.6154 114.342 11.7427 114.342 12.0486C114.342 12.3216 114.174 12.4344 113.948 12.46L114.371 13.1227H114.09L113.699 12.4781H113.466V13.1227ZM113.736 11.2185C113.145 11.2185 112.685 11.6809 112.685 12.3434C112.685 12.9625 113.086 13.4684 113.736 13.4684C114.32 13.4684 114.78 13.0097 114.78 12.3434C114.78 11.6809 114.32 11.2185 113.736 11.2185ZM113.736 13.7051C112.951 13.7051 112.393 13.119 112.393 12.3434C112.393 11.5244 113.013 10.9819 113.736 10.9819C114.451 10.9819 115.072 11.5244 115.072 12.3434C115.072 13.1626 114.451 13.7051 113.736 13.7051Z" fill="black"/>
</svg>
