<svg width="22" height="16" viewBox="0 0 22 16" fill="none" xmlns="http://www.w3.org/2000/svg">
<path d="M16.5 0.0126953C17.3657 0.0126953 18.2145 0.112751 19.0469 0.3125C19.8792 0.512259 20.6786 0.811407 21.4443 1.21094H21.4453C21.6262 1.29323 21.7613 1.41696 21.8516 1.58105C21.9422 1.74582 21.9872 1.91862 21.9873 2.09961V14.1504C21.9872 14.5292 21.827 14.817 21.5059 15.0146C21.2249 15.1875 20.9349 15.215 20.6348 15.0977L20.5059 15.0391C19.8884 14.7053 19.2413 14.4463 18.5654 14.2627C17.8895 14.0791 17.201 13.9873 16.5 13.9873C15.4985 13.9873 14.5304 14.1631 13.5957 14.5137C12.6643 14.863 11.7987 15.3524 11 15.9834C10.2013 15.3524 9.33572 14.863 8.4043 14.5137C7.46956 14.1631 6.50149 13.9873 5.5 13.9873C4.79903 13.9873 4.11052 14.0791 3.43457 14.2627C2.84306 14.4234 2.27334 14.6413 1.72656 14.917L1.49414 15.0391C1.14798 15.2203 0.815135 15.2121 0.494141 15.0146C0.172968 14.817 0.0128053 14.5292 0.0126953 14.1504V2.09961C0.0127604 1.91862 0.0578225 1.74582 0.148438 1.58105C0.238687 1.41696 0.373772 1.29323 0.554688 1.21094L0.549805 1.2002L0.555664 1.21094C1.32143 0.811407 2.1208 0.512259 2.95312 0.3125C3.78545 0.112751 4.63435 0.0126953 5.5 0.0126953C6.46546 0.0126953 7.41016 0.137067 8.33398 0.386719C9.25787 0.636419 10.1451 1.01129 10.9941 1.51074L10.9873 1.52246L11.0059 1.51074C11.8549 1.01129 12.7421 0.636419 13.666 0.386719C14.5898 0.137067 15.5345 0.0126953 16.5 0.0126953ZM1.9873 12.6172L2.00391 12.6123C2.58654 12.4125 3.16505 12.262 3.73926 12.1621C4.31353 12.0622 4.9007 12.0127 5.5 12.0127C6.28222 12.0127 7.04363 12.0997 7.78418 12.2744C8.52483 12.4492 9.26165 12.712 9.99414 13.0615L10.0127 13.0693V3.2002H10.0244L10.0059 3.18945C9.32161 2.78895 8.59581 2.48835 7.82812 2.28809C7.06044 2.08782 6.28441 1.9873 5.5 1.9873C4.89918 1.9873 4.30242 2.04626 3.70996 2.16309C3.11752 2.27992 2.54586 2.45483 1.99512 2.68848L2 2.7002L1.9873 2.6709V12.6172ZM20.0049 2.68848C19.4541 2.45483 18.8825 2.27992 18.29 2.16309C17.6976 2.04626 17.1008 1.9873 16.5 1.9873C15.7156 1.9873 14.9396 2.08782 14.1719 2.28809C13.4042 2.48835 12.6784 2.78895 11.9941 3.18945L12 3.2002L11.9873 3.17871V13.0693L12.0059 13.0615C12.7383 12.712 13.4752 12.4492 14.2158 12.2744C14.9564 12.0997 15.7178 12.0127 16.5 12.0127C17.0993 12.0127 17.6865 12.0622 18.2607 12.1621C18.8349 12.262 19.4135 12.4125 19.9961 12.6123L20.0127 12.6172V2.7002H20.0322L20.0049 2.68848Z" fill="#004D99" stroke="#004D99" stroke-width="0.025"/>
</svg>
